<?xml version="1.0" encoding="UTF-8"?>
<svg id="Layer_1" xmlns="http://www.w3.org/2000/svg" version="1.1" viewBox="0 0 268.87 66.4">
  <!-- Generator: Adobe Illustrator 29.6.1, SVG Export Plug-In . SVG Version: 2.1.1 Build 9)  -->
  <defs>
    <style>
      .st0 {
        fill: #fff;
      }

      .st1 {
        fill: #f79320;
      }
    </style>
  </defs>
  <polygon class="st0" points="136.09 37.54 131.42 37.54 131.42 48.77 119.91 48.77 119.91 37.54 111.54 37.54 111.54 66.4 119.91 66.4 119.91 54.63 131.42 54.63 131.42 66.4 139.74 66.4 139.74 46.03 136.09 37.54"/>
  <polygon class="st1" points="82.19 37.54 77.68 37.54 71.62 55.41 65.86 37.54 52.72 37.54 52.72 66.4 61.09 66.4 61.09 48.82 67.63 66.4 75.85 66.4 82.19 49.42 82.19 37.54"/>
  <path class="st1" d="M110.97,56.35c-.15-.69-.4-1.4-.76-2.1-.36-.71-.87-1.36-1.52-1.94-.66-.58-1.49-.95-2.51-1.11.72-.23,1.39-.57,1.99-1.04.61-.47,1.12-1,1.55-1.6s.76-1.22,1.01-1.86c.25-.65.37-1.26.37-1.84,0-1.29-.3-2.4-.89-3.34-.59-.93-1.39-1.69-2.41-2.27-1.02-.58-2.21-1.01-3.59-1.28s-2.85-.41-4.43-.41h-7.56v5.81h6.23c.98,0,1.89.23,2.73.68.84.45,1.26,1.03,1.26,1.74s-.13,1.21-.39,1.6-.62.69-1.06.92c-.44.23-.95.37-1.5.44-.56.06-1.13.1-1.72.1h-3.74v5.28h3.79c1.8,0,3.07.22,3.81.65.74.44,1.11,1.2,1.11,2.3,0,.39-.12.77-.35,1.14-.23.37-.53.7-.89.97s-.79.49-1.28.65-1,.24-1.52.24h-7.33l.04-22.51h-8.41v28.85h16.58c1.61,0,3.12-.19,4.53-.56,1.41-.37,2.64-.91,3.69-1.62s1.88-1.6,2.48-2.66c.61-1.06.91-2.27.91-3.63,0-.36-.07-.88-.22-1.58"/>
  <path class="st0" d="M47.37,66.4h9.15l-12.4-28.85h-8.41l-7.31,16.99c.33,1.05.5,2.2.5,3.43,0,1-.23,2.04-.69,3.11-.46,1.05-1.1,2.03-1.9,2.91-.81.88-1.78,1.62-2.9,2.21h-.02l-.08.2h19.98l-2.51-6.2h-5.81l5.07-12.88,7.33,19.07h0Z"/>
  <path class="st0" d="M.3,60.59h15.35c.46,0,.92-.1,1.38-.29.46-.19.88-.44,1.26-.73.38-.29.68-.61.91-.97s.34-.71.34-1.07c0-.64-.15-1.19-.44-1.62-.3-.44-.67-.78-1.11-1.04-.44-.26-.94-.44-1.5-.53-.56-.1-1.1-.15-1.62-.15h-6.2c-1.18,0-2.3-.21-3.35-.63-1.05-.42-1.97-1.02-2.76-1.79s-1.41-1.72-1.87-2.85C.23,47.79,0,46.51,0,45.09,0,44.19.22,43.29.64,42.41c.43-.89,1.02-1.69,1.8-2.42.77-.73,1.69-1.31,2.76-1.77,1.07-.45,2.22-.68,3.47-.68h19.24v5.81h-15.21c-.49,0-.98.06-1.45.19-.48.13-.9.3-1.28.51s-.69.47-.93.77c-.25.31-.37.66-.37,1.04,0,.55.12.99.34,1.33.23.34.53.61.91.8s.79.34,1.23.44.88.16,1.3.19h7.09c1.18,0,2.3.22,3.35.66,1.05.43,1.97,1.06,2.76,1.89.79.82,1.41,1.81,1.87,2.95.46,1.15.69,2.43.69,3.85,0,.9-.21,1.85-.64,2.83-.43.98-1.02,1.89-1.78,2.71-.75.82-1.65,1.51-2.71,2.05-1.05.55-2.2.83-3.44.83H.3v-5.81H.3Z"/>
  <polygon class="st0" points="170.08 37.54 157.68 66.4 149.26 66.4 136.86 37.54 145.97 37.54 153.3 56.52 160.97 37.54 170.08 37.54"/>
  <path class="st0" d="M104.03,27.63c-1.62-.66-2.91-1.64-3.88-2.95-.97-1.3-1.48-2.87-1.53-4.7h7.25c.11,1.04.46,1.83,1.07,2.37.61.54,1.41.82,2.39.82s1.8-.23,2.39-.7c.58-.46.88-1.11.88-1.93,0-.69-.23-1.26-.7-1.71-.46-.45-1.03-.82-1.71-1.12-.68-.29-1.64-.62-2.89-.99-1.8-.56-3.28-1.11-4.42-1.67s-2.12-1.38-2.95-2.47c-.82-1.09-1.23-2.51-1.23-4.26,0-2.6.94-4.64,2.83-6.11C103.41.74,105.87,0,108.89,0s5.56.74,7.44,2.21c1.88,1.47,2.89,3.52,3.03,6.15h-7.36c-.05-.9-.39-1.61-1-2.13s-1.39-.78-2.35-.78c-.82,0-1.49.22-1.99.66s-.76,1.07-.76,1.89c0,.9.42,1.61,1.27,2.11s2.18,1.05,3.98,1.63c1.8.61,3.27,1.19,4.4,1.75,1.13.56,2.1,1.37,2.93,2.43.82,1.06,1.23,2.43,1.23,4.1s-.4,3.04-1.21,4.34-1.98,2.34-3.52,3.11-3.36,1.15-5.45,1.15-3.88-.33-5.49-.99h-.01Z"/>
  <path class="st0" d="M141.29,23.41h-10.43l-1.67,4.94h-7.13L132.17.4h7.88l10.11,27.95h-7.21l-1.67-4.94h0ZM139.54,18.15l-3.46-10.23-3.42,10.23h6.89,0Z"/>
  <path class="st0" d="M174.05,16.42c.98,1.26,1.47,2.7,1.47,4.32,0,2.34-.82,4.19-2.45,5.55s-3.91,2.05-6.83,2.05h-13.02V.4h12.58c2.84,0,5.06.65,6.67,1.95,1.61,1.3,2.41,3.07,2.41,5.3,0,1.64-.43,3.01-1.29,4.1s-2.01,1.84-3.44,2.27c1.62.34,2.92,1.15,3.9,2.41h0ZM160.04,11.7h4.46c1.11,0,1.97-.25,2.57-.74s.9-1.21.9-2.17-.3-1.68-.9-2.19c-.6-.5-1.45-.76-2.57-.76h-4.46v5.85h0ZM167.7,22.07c.62-.52.94-1.27.94-2.25s-.33-1.75-.98-2.31-1.55-.84-2.69-.84h-4.94v6.17h5.02c1.14,0,2.02-.26,2.65-.78h0Z"/>
  <path class="st0" d="M205.06,37.92v27.95h-6.81v-11.5h-10.59v11.5h-6.81v-27.95h6.81v10.95h10.59v-10.95s6.81,0,6.81,0Z"/>
  <path class="st0" d="M227.35,60.93h-10.43l-1.67,4.94h-7.13l10.11-27.95h7.88l10.11,27.95h-7.21l-1.67-4.94h0ZM225.6,55.68l-3.46-10.23-3.42,10.23h6.89,0Z"/>
  <path class="st0" d="M246.1,37.92v27.95h-6.81v-27.95s6.81,0,6.81,0Z"/>
  <path class="st0" d="M261.93,65.13c-.76-.7-1.13-1.57-1.13-2.61s.38-1.95,1.13-2.67,1.73-1.07,2.93-1.07,2.13.36,2.89,1.07c.76.72,1.13,1.61,1.13,2.67s-.38,1.9-1.13,2.61c-.76.7-1.72,1.06-2.89,1.06s-2.17-.35-2.93-1.06ZM268.44,36.93l-.8,19.07h-5.77l-.8-19.07h7.37Z"/>
</svg>